PathFileType	4	(X/Y/Z)	TVC_32_BWA_08_walk_RCNL2025.trc
DataRate	CameraRate	NumFrames	NumMarkers	Units	OrigDataRate	OrigDataStartFrame	OrigNumFrames
100	100	12	27	mm	100	382	436
Frame#	Time	R_Shoulder			L_Shoulder			C7			J_Notch			R_Elbow			L_Elbow			R_Wrist			L_Wrist			R_Asis			L_Asis			R_Psis			L_Psis			Sacral			Thoracic			Sternum			R_Thigh_Lateral			R_Knee_Lateral			R_Shank_Lateral			R_Ankle_Lateral			R_Heel			R_Toe			L_Thigh_Lateral			L_Knee_Lateral			L_Shank_Lateral			L_Ankle_Lateral			L_Heel			L_Toe		
		X1	Y1	Z1	X2	Y2	Z2	X3	Y3	Z3	X4	Y4	Z4	X5	Y5	Z5	X6	Y6	Z6	X7	Y7	Z7	X8	Y8	Z8	X9	Y9	Z9	X10	Y10	Z10	X11	Y11	Z11	X12	Y12	Z12	X13	Y13	Z13	X14	Y14	Z14	X15	Y15	Z15	X16	Y16	Z16	X17	Y17	Z17	X18	Y18	Z18	X19	Y19	Z19	X20	Y20	Z20	X21	Y21	Z21	X22	Y22	Z22	X23	Y23	Z23	X24	Y24	Z24	X25	Y25	Z25	X26	Y26	Z26	X27	Y27	Z27
382	3.81000000	784.008972	1471.260498	422.078766	758.194153	1445.390259	43.968693	713.614075	1513.984131	233.854675	875.233887	1414.107666	237.650085	743.572205	1125.129761	542.613647	790.312195	1121.139893	-75.235596	809.898315	858.973877	512.198364	927.808136	884.652313	-57.935497	800.192322	1010.807617	396.601227	788.674133	1020.314331	111.206161	607.989441	1026.661743	318.184265	605.322144	1028.242798	217.001511	606.655792	1027.452271	267.592888	635.084961	1257.378662	256.061615	894.765503	1268.228882	239.412857	851.050842	653.972046	491.983582	939.778687	538.732361	448.149414	834.160339	354.895020	484.987213	772.513000	152.727905	398.756500	716.236755	147.988968	330.341736	893.879578	68.239143	396.798859	710.478516	672.067627	63.218868	719.575012	506.627014	132.305588	691.234680	346.624176	73.994400	714.227173	72.543472	147.662888	645.209534	58.884819	194.621826	854.417053	37.982914	178.833923
383	3.82000000	790.780518	1471.001831	422.263733	766.050476	1445.498047	43.997669	721.095459	1513.715332	233.744232	882.755920	1413.784180	237.911072	745.589722	1125.261841	542.476685	802.331177	1122.204590	-76.373650	808.765778	858.409729	511.500092	945.369537	889.104767	-59.728201	808.104980	1010.226501	396.127838	795.153259	1019.986633	110.959793	615.454956	1026.472168	318.731628	612.283142	1028.177612	217.543777	613.869049	1027.324890	268.137703	642.573364	1257.187622	256.264069	902.236389	1267.889160	239.296326	859.954712	653.533020	490.943268	948.427551	538.435425	445.573975	852.328125	349.748413	484.060608	802.160217	143.983078	398.989624	746.139343	135.644669	330.858643	928.137329	67.123581	396.976166	715.212402	671.973694	63.210876	722.586731	506.567780	132.362183	693.151978	346.798859	73.992584	714.251160	72.538910	147.828354	645.235901	58.995216	194.720108	854.413330	37.947533	178.860413
384	3.83000000	797.553528	1470.695923	422.515961	773.925903	1445.548828	44.090843	728.603516	1513.372681	233.700287	890.322815	1413.409302	238.241913	747.658997	1125.448730	542.496155	813.994629	1123.215088	-77.389435	807.818817	857.985748	510.807785	962.640381	893.717468	-61.293133	816.077942	1009.533325	395.772369	801.780518	1019.586853	110.800804	623.007996	1026.172485	319.289459	619.362732	1028.034790	218.100967	621.185364	1027.103638	268.695213	650.132263	1256.915527	256.525879	909.780090	1267.500488	239.242203	868.177979	652.608521	489.838135	956.277100	537.627441	442.858643	870.306458	344.650085	483.200409	832.125732	135.798019	399.418335	776.476074	123.807350	331.676666	962.320496	66.920074	397.121338	720.057007	671.859253	63.235516	725.665405	506.488678	132.452911	695.117004	346.968384	74.000702	714.283264	72.534805	148.002106	645.264160	59.110878	194.826309	854.411499	37.910095	178.901001
385	3.84000000	804.332520	1470.355835	422.836670	781.821960	1445.538452	44.257553	736.142944	1512.960327	233.729462	897.935608	1412.987915	238.647614	749.783386	1125.692871	542.653076	825.343323	1124.156372	-78.274948	807.064636	857.696747	510.130356	979.592834	898.440521	-62.631078	824.113037	1008.744385	395.537537	808.554626	1019.127075	110.724678	630.656738	1025.769775	319.860504	626.565918	1027.817383	218.677200	628.611328	1026.793579	269.268852	657.762085	1256.565186	256.854248	917.398132	1267.067261	239.258804	875.651001	651.179199	488.618073	963.359802	536.348999	440.007843	888.064636	339.702789	482.413635	862.252136	128.317581	400.045654	807.088440	112.655930	332.794586	996.249512	67.701393	397.211731	725.011658	671.727966	63.296268	728.828857	506.390686	132.576981	697.140381	347.133881	74.021660	714.326050	72.531708	148.182480	645.296570	59.235191	194.940567	854.410034	37.870827	178.954758
386	3.85000000	811.119812	1469.994873	423.226685	789.737976	1445.462769	44.507484	743.716370	1512.481934	233.838486	905.593872	1412.525391	239.133286	751.968445	1125.996826	542.927246	836.419067	1125.016357	-79.020409	806.508789	857.536560	509.476624	996.202545	903.222992	-63.740092	832.215149	1007.874939	395.420410	815.473816	1018.618896	110.727379	638.409912	1025.271973	320.449738	633.896912	1027.528442	219.278229	636.153412	1026.400208	269.863983	665.463135	1256.138428	257.256287	925.091553	1266.595093	239.355072	882.317261	649.239380	487.231781	969.729370	534.655701	437.033630	905.551270	334.999512	481.699188	892.340210	121.658722	400.860138	837.782410	102.345551	334.183960	1029.711426	69.492546	397.238922	730.077454	671.581360	63.395634	732.093628	506.273956	132.733078	699.233215	347.295959	74.058235	714.382263	72.530251	148.367645	645.335388	59.371269	195.062790	854.407898	37.829857	179.020218
387	3.86000000	817.916260	1469.625488	423.686401	797.671631	1445.317139	44.849987	751.324158	1511.939941	234.033966	913.295837	1412.027710	239.704025	754.222290	1126.360840	543.298279	847.263000	1125.785522	-79.615250	806.156097	857.497223	508.855072	1012.449097	908.014282	-64.615627	840.391479	1006.937744	395.412842	822.536255	1018.072754	110.805367	646.276611	1024.686523	321.063904	641.358948	1027.170410	219.910843	643.817780	1025.928467	270.487373	673.235962	1255.634766	257.738464	932.860901	1266.089966	239.540283	888.145325	646.800659	485.632294	975.462402	532.615295	433.956879	922.692017	330.617279	481.046509	922.149109	115.902634	401.834442	868.327942	92.999779	335.787781	1062.461670	72.263687	397.209137	735.258179	671.418701	63.534615	735.474365	506.137726	132.919144	701.406433	347.454376	74.112541	714.454651	72.531090	148.555603	645.382874	59.521618	195.192581	854.404541	37.787289	179.095383
388	3.87000000	824.721558	1469.257202	424.216064	805.619568	1445.096802	45.293495	758.964966	1511.335571	234.322144	921.038879	1411.499878	240.364792	756.555725	1126.782471	543.747314	857.913452	1126.455811	-80.049103	806.011322	857.568054	508.273544	1028.316284	912.764923	-65.251017	848.650879	1005.941650	395.502289	829.740234	1017.497192	110.955521	654.264893	1024.019775	321.710815	648.953857	1026.744629	220.581924	651.609375	1025.382202	271.146370	681.081299	1255.052368	258.306335	940.706360	1265.557617	239.823578	893.140442	643.895203	483.783478	980.658264	530.303589	430.808472	939.389343	326.611481	480.435547	951.400269	111.088112	402.925079	898.459778	84.703659	337.522491	1094.229248	75.925461	397.140961	740.559814	671.237305	63.712345	738.983459	505.980255	133.132080	703.670166	347.608032	74.185577	714.545715	72.534866	148.744125	645.441040	59.687851	195.329071	854.399963	37.743252	179.177872
389	3.88000000	831.534912	1468.895630	424.816040	813.578186	1444.796387	45.845047	766.635986	1510.668457	234.708786	928.819946	1410.945923	241.120239	758.981812	1127.255371	544.257874	868.404907	1127.020874	-80.312538	806.079895	857.735291	507.739334	1043.791992	917.427429	-65.638249	857.002258	1004.891357	395.673157	837.083923	1016.898560	111.174858	662.381226	1023.276917	322.398346	656.681641	1026.250732	221.297577	659.531433	1024.763824	271.847961	688.999878	1254.387695	258.964233	948.627686	1265.002563	240.213486	897.354370	640.577942	481.666290	985.436768	527.800110	427.629028	955.525391	323.011200	479.837860	979.785950	107.207130	404.073853	927.882568	77.498543	339.282928	1124.724487	80.327934	397.060669	745.989746	671.032166	63.925907	742.630432	505.798950	133.367798	706.033203	347.754883	74.276871	714.657654	72.542114	148.930740	645.511536	59.870483	195.470718	854.394836	37.697952	179.265106
390	3.89000000	838.355957	1468.541870	425.487091	821.543945	1444.411011	46.509975	774.333557	1509.936890	235.199066	936.636230	1410.368408	241.974548	761.515747	1127.769287	544.816711	878.766785	1127.475342	-80.397705	806.368378	857.981995	507.258926	1058.868347	921.956879	-65.768960	865.453796	1003.787292	395.908112	844.565430	1016.280640	111.460403	670.629578	1022.461731	323.133545	664.540833	1025.687256	222.062149	667.585205	1024.074493	272.597847	696.992493	1253.636353	259.714813	956.624390	1264.427612	240.717560	900.891663	636.926941	479.284760	989.933472	525.182739	424.468323	970.968750	319.816589	479.219025	1006.981201	104.203644	405.211029	956.277954	71.379562	340.950439	1153.651245	85.264046	396.995911	751.555420	670.796509	64.170296	746.421204	505.590393	133.621155	708.501831	347.891876	74.384254	714.791992	72.553177	149.112717	645.595398	60.068840	195.615158	854.390076	37.651688	179.354385
391	3.90000000	845.185242	1468.191895	426.230499	829.514221	1443.935791	47.291710	782.053772	1509.138062	235.797531	944.485168	1409.767578	242.931366	764.173767	1128.309692	545.414429	889.023254	1127.814209	-80.298714	806.884644	858.287964	506.838165	1073.540955	926.311462	-65.635476	874.011658	1002.626038	396.189728	852.182495	1015.644226	111.808937	679.010681	1021.576477	323.921417	672.527832	1025.051270	222.877625	675.769257	1023.313873	273.399521	705.059753	1252.793457	260.559021	964.695312	1263.833862	241.341827	903.910950	633.042053	476.669708	994.293640	522.523193	421.383179	985.583984	316.999237	478.542450	1032.660278	101.976364	406.260437	983.316650	66.296417	342.403442	1180.721191	90.478073	396.969055	757.263062	670.522400	64.438683	750.357727	505.350403	133.886246	711.079224	348.014984	74.503967	714.949524	72.568047	149.287048	645.693054	60.281147	195.759094	854.386841	37.604847	179.443130
392	3.91000000	852.025024	1467.836914	427.048370	837.487793	1443.367065	48.191692	789.793152	1508.268677	236.508057	952.365051	1409.142578	243.993530	766.972900	1128.858643	546.045471	899.192566	1128.033569	-80.011780	807.638214	858.630768	506.482285	1087.808655	930.452637	-65.231805	882.679443	1001.401611	396.501801	859.932190	1014.987671	112.216980	687.521606	1020.622375	324.764282	680.637573	1024.339233	223.743057	684.079590	1022.480804	274.253670	713.202026	1251.854980	261.495758	972.839417	1263.220459	242.090439	906.619934	629.040283	473.880157	998.663879	519.882935	418.434662	999.243774	314.505310	477.773529	1056.515259	100.385689	407.145447	1008.673035	62.157879	343.529327	1205.670288	95.679092	396.991119	763.116333	670.200745	64.722885	754.437683	505.074341	134.156891	713.765320	348.119537	74.630951	715.130005	72.586433	149.450668	645.804260	60.504875	195.898376	854.386169	37.557865	179.528992
393	3.92000000	858.880127	1467.463379	427.943604	845.464905	1442.702759	49.209435	797.549072	1507.325317	237.333908	960.275269	1408.490967	245.162964	769.930054	1129.395874	546.708008	909.287537	1128.129517	-79.535225	808.639954	858.986115	506.196030	1101.672913	934.345184	-64.554470	891.457214	1000.106873	396.830811	867.810547	1014.306519	112.680794	696.155334	1019.600220	325.661163	688.863037	1023.547363	224.654602	692.509186	1021.573792	275.157883	721.419556	1250.817749	262.521851	981.055054	1262.585327	242.965225	909.263245	625.049683	471.001343	1003.183960	517.310181	415.684387	1011.842285	312.262360	476.884674	1078.276855	99.264664	407.796295	1032.042603	58.840042	344.236450	1228.276367	100.558861	397.057129	769.115112	669.822693	65.014168	758.654236	504.757416	134.427338	716.556641	348.200623	74.759453	715.332153	72.607849	149.600677	645.928040	60.737270	196.028168	854.388794	37.511189	179.610016
